<svg xmlns="http://www.w3.org/2000/svg" viewBox="0 0 128 128">
  <circle cx="64" cy="64" r="64" fill="#F3E5F5"/>
  <path d="M58 44 C44 52 30 74 36 94 C42 112 70 112 84 98 C98 84 94 60 80 48 C74 42 64 40 58 44 Z" fill="#6A1B9A"/>
  <ellipse cx="52" cy="78" rx="6" ry="14" fill="#FFFFFF" opacity="0.2" transform="rotate(20 52 78)"/>
  <path d="M56 48 C58 38 66 34 76 36 C82 38 86 44 84 52 C78 46 70 44 64 48 C62 44 58 44 56 48 Z" fill="#43A047"/>
  <path d="M72 38 C74 30 78 24 84 20" stroke="#2E7D32" stroke-width="5" fill="none" stroke-linecap="round"/>
</svg>
